<?xml version="1.0" encoding="UTF-8" standalone="no"?>
<svg
   xmlns:dc="http://purl.org/dc/elements/1.1/"
   xmlns:cc="http://creativecommons.org/ns#"
   xmlns:rdf="http://www.w3.org/1999/02/22-rdf-syntax-ns#"
   xmlns:svg="http://www.w3.org/2000/svg"
   xmlns="http://www.w3.org/2000/svg"
   xmlns:sodipodi="http://sodipodi.sourceforge.net/DTD/sodipodi-0.dtd"
   xmlns:inkscape="http://www.inkscape.org/namespaces/inkscape"
   width="755.37805"
   height="171.2449"
   viewBox="0 0 755.37805 171.2449"
   version="1.1"
   id="svg88"
   sodipodi:docname="logo.svg"
   inkscape:version="1.0.1 (c497b03c, 2020-09-10)">
  <metadata
     id="metadata92">
    <rdf:RDF>
      <cc:Work
         rdf:about="">
        <dc:format>image/svg+xml</dc:format>
        <dc:type
           rdf:resource="http://purl.org/dc/dcmitype/StillImage" />
        <dc:title></dc:title>
      </cc:Work>
    </rdf:RDF>
  </metadata>
  <sodipodi:namedview
     pagecolor="#ffffff"
     bordercolor="#666666"
     borderopacity="1"
     objecttolerance="10"
     gridtolerance="10"
     guidetolerance="10"
     inkscape:pageopacity="0"
     inkscape:pageshadow="2"
     inkscape:window-width="1280"
     inkscape:window-height="710"
     id="namedview90"
     showgrid="false"
     inkscape:snap-global="false"
     inkscape:zoom="0.82026144"
     inkscape:cx="367.81743"
     inkscape:cy="84.492479"
     inkscape:window-x="0"
     inkscape:window-y="23"
     inkscape:window-maximized="1"
     inkscape:current-layer="svg88"
     showguides="true"
     fit-margin-top="0"
     fit-margin-left="0"
     fit-margin-right="0"
     fit-margin-bottom="0" />
  <defs
     id="defs73">
    <clipPath
       id="clip-Artboard_1">
      <rect
         width="792"
         height="612"
         id="rect70"
         x="0"
         y="0" />
    </clipPath>
  </defs>
  <g
     id="组_6"
     data-name="组 6"
     transform="matrix(1.8462266,0,0,1.8462266,-351.38492,-435.96241)"
     inkscape:export-xdpi="4.1399827"
     inkscape:export-ydpi="4.1399827">
    <g
       id="组_5"
       data-name="组 5">
      <g
         id="组_4"
         data-name="组 4">
        <g
           id="组_3"
           data-name="组 3">
          <path
             id="路径_21"
             data-name="路径 21"
             d="M 190.326,236.137 H 206.9 V 313.1 h 39.445 v 14.261 h -56.019 z"
             fill="#283891" />
          <path
             id="路径_22"
             data-name="路径 22"
             d="m 290.289,286.244 h 2.185 v -0.9 c 0,-8.607 -5.4,-11.562 -12.592,-11.562 -9.38,0 -17.988,6.294 -17.988,6.294 l -6.168,-11.69 a 44.2,44.2 0 0 1 25.7,-8.1 c 17.215,0 27.238,9.508 27.238,26.081 v 40.986 h -15.036 v -5.4 a 41.419,41.419 0 0 1 0.258,-4.624 h -0.258 c 0.13,0 -5.011,11.562 -19.914,11.562 -11.692,0 -22.227,-7.321 -22.227,-20.427 0,-20.808 28.138,-22.22 38.802,-22.22 z m -12.464,29.937 c 8.608,0 14.776,-9.252 14.776,-17.218 v -1.542 h -2.827 c -8.35,0 -21.841,1.157 -21.841,10.28 0,4.369 3.211,8.48 9.892,8.48 z"
             fill="#283891" />
          <path
             id="路径_23"
             data-name="路径 23"
             d="m 317.919,261.833 h 17.215 l 11.435,43.041 a 56.146,56.146 0 0 1 1.285,6.938 h 0.257 c 0,0 0.642,-3.469 1.542,-6.938 l 12.077,-42.913 h 14.518 l 12.077,42.913 c 0.9,3.469 1.415,6.938 1.415,6.938 H 390 c 0,0 0.513,-3.469 1.412,-6.938 l 11.435,-43.041 H 419.8 l -19.91,65.525 h -18.116 l -11.049,-37.387 c -1.03,-3.469 -1.672,-7.068 -1.672,-7.068 H 368.8 a 56.908,56.908 0 0 1 -1.542,7.068 l -11.05,37.387 h -18.247 z"
             fill="#283891" />
          <path
             id="路径_24"
             data-name="路径 24"
             d="m 433.173,236.137 h 16.573 v 37.131 h 11.82 l 21.456,-37.131 h 17.988 l -25.826,43.426 v 0.258 l 27.368,47.537 h -18.63 l -22.356,-39.829 h -11.82 v 39.829 h -16.573 z"
             fill="#0f75bc" />
          <path
             id="路径_25"
             data-name="路径 25"
             d="m 547.015,286.244 h 2.185 v -0.9 c 0,-8.607 -5.4,-11.562 -12.591,-11.562 -9.38,0 -17.988,6.294 -17.988,6.294 l -6.168,-11.69 a 44.2,44.2 0 0 1 25.7,-8.1 c 17.215,0 27.237,9.508 27.237,26.081 v 40.986 h -15.036 v -5.4 a 41.574,41.574 0 0 1 0.257,-4.624 h -0.257 c 0.13,0 -5.011,11.562 -19.915,11.562 -11.692,0 -22.226,-7.321 -22.226,-20.427 0,-20.808 28.137,-22.22 38.802,-22.22 z m -12.464,29.937 c 8.607,0 14.776,-9.252 14.776,-17.218 v -1.542 H 546.5 c -8.35,0 -21.842,1.157 -21.842,10.28 0,4.369 3.212,8.48 9.893,8.48 z"
             fill="#0f75bc" />
        </g>
      </g>
      <circle
         id="椭圆_1"
         data-name="椭圆 1"
         cx="11.7"
         cy="11.7"
         r="11.7"
         transform="translate(576.073,303.957)"
         fill="#0f75bc" />
    </g>
  </g>
</svg>
